<svg width="131" height="101" viewBox="0 0 131 101" fill="none" xmlns="http://www.w3.org/2000/svg">
<path d="M118.98 100.16H12.0201C5.52606 100.16 0.560059 95.194 0.560059 88.7V12.3C0.560059 5.80603 5.52606 0.840027 12.0201 0.840027H118.98C125.474 0.840027 130.44 5.80603 130.44 12.3V88.7C130.44 95.194 125.474 100.16 118.98 100.16ZM12.0201 8.48003C9.72806 8.48003 8.20006 10.008 8.20006 12.3V88.7C8.20006 90.992 9.72806 92.52 12.0201 92.52H118.98C121.272 92.52 122.8 90.992 122.8 88.7V12.3C122.8 10.008 121.272 8.48003 118.98 8.48003H12.0201Z" fill="black"/>
<path d="M84.5999 46.68C76.1959 46.68 69.3199 39.804 69.3199 31.4C69.3199 22.996 76.1959 16.12 84.5999 16.12C93.004 16.12 99.88 22.996 99.88 31.4C99.88 39.804 93.004 46.68 84.5999 46.68ZM84.5999 23.76C80.3979 23.76 76.9599 27.198 76.9599 31.4C76.9599 35.602 80.3979 39.04 84.5999 39.04C88.8019 39.04 92.24 35.602 92.24 31.4C92.24 27.198 88.8019 23.76 84.5999 23.76Z" fill="black"/>
<path d="M104.846 99.014L42.5802 40.5679L7.05417 73.4199L1.70618 68.0719L42.5802 29.8719L110.194 93.6659L104.846 99.014Z" fill="black"/>
<path d="M124.328 79.9138L103.7 63.1058L86.5098 77.2398L81.5438 71.1278L103.7 53.1738L128.912 73.8018L124.328 79.9138Z" fill="black"/>
</svg>
