<svg width="24" height="24" viewBox="0 0 24 24" fill="none" xmlns="http://www.w3.org/2000/svg">
<path d="M1.39045 22.6055L1.39453 22.6095C1.50267 22.7185 1.63128 22.805 1.77296 22.864C1.91464 22.9231 2.0666 22.9536 2.2201 22.9537C2.34925 22.9536 2.47752 22.9323 2.59978 22.8907L9.25631 20.6326L22.0298 7.85916C22.8106 7.07821 23.2493 6.01906 23.2492 4.91469C23.2492 3.81031 22.8104 2.75119 22.0295 1.97032C21.2486 1.18945 20.1894 0.750783 19.085 0.750832C17.9807 0.75088 16.9215 1.18964 16.1407 1.97058L3.36722 14.744L1.10934 21.4004C1.03822 21.6073 1.02687 21.8302 1.07659 22.0433C1.12631 22.2565 1.23509 22.4513 1.39045 22.6055ZM17.2014 3.03122C17.7016 2.53478 18.3782 2.2568 19.083 2.25815C19.7878 2.25951 20.4633 2.54008 20.9617 3.03844C21.46 3.5368 21.7406 4.21233 21.7419 4.9171C21.7432 5.62187 21.4652 6.29846 20.9688 6.7987L19.2891 8.47842L15.5216 4.71094L17.2014 3.03122ZM4.6755 15.5571L14.4609 5.77158L18.2284 9.53906L8.44294 19.3245L2.74134 21.2587L4.6755 15.5571Z" fill="black"/>
</svg>
