<svg width="24" height="24" viewBox="0 0 24 24" fill="none" xmlns="http://www.w3.org/2000/svg">
<g clip-path="url(#clip0)">
<path fill-rule="evenodd" clip-rule="evenodd" d="M11.907 3.024C11.8727 3.04457 11.8447 3.07414 11.826 3.1095L1.5405 20.61C1.51487 20.6511 1.50104 20.6984 1.50051 20.7468C1.49998 20.7952 1.51278 20.8429 1.5375 20.8845C1.5615 20.9295 1.593 20.9595 1.6185 20.9745C1.641 20.9895 1.6695 21 1.7175 21H22.287C22.3218 21.0012 22.3562 20.9924 22.386 20.9745C22.4207 20.952 22.449 20.921 22.4685 20.8845C22.493 20.8427 22.5055 20.795 22.5047 20.7466C22.5039 20.6982 22.4898 20.6509 22.464 20.61L12.18 3.1095C12.1613 3.07414 12.1333 3.04457 12.099 3.024C12.0696 3.00788 12.0365 2.99961 12.003 3C11.9695 2.99961 11.9364 3.00788 11.907 3.024ZM13.473 2.349C13.3245 2.09035 13.1104 1.87545 12.8523 1.72601C12.5942 1.57657 12.3012 1.49788 12.003 1.49788C11.7048 1.49788 11.4118 1.57657 11.1537 1.72601C10.8956 1.87545 10.6815 2.09035 10.533 2.349L0.247495 19.8495C-0.438005 21.0165 0.383995 22.5 1.7175 22.5H22.287C23.6205 22.5 24.444 21.015 23.757 19.8495L13.473 2.349Z" fill="black"/>
</g>
<defs>
<clipPath id="clip0">
<rect width="24" height="24" fill="white"/>
</clipPath>
</defs>
</svg>
