<svg width="19" height="20" viewBox="0 0 19 20" fill="none" xmlns="http://www.w3.org/2000/svg">
<path d="M0.97884 7.28039C0.721927 8.05111 0.978782 14.9876 4.83246 18.4558C7.65843 18.7127 15.2371 18.4558 15.2371 18.4558C15.2371 18.4558 17.5492 15.3729 17.5494 10.3633V4.91828C17.5494 4.48785 17.274 4.10571 16.8656 3.96959L14.0811 3.04144C14.0811 2.61578 13.7361 2.27072 13.3104 2.27072H10.6129C10.6129 1.84506 10.2678 1.5 9.84219 1.5H8.53003C7.97775 1.5 7.53003 1.94772 7.53003 2.5V2.27072H5.9886H5.44716C4.89487 2.27072 4.44716 2.71843 4.44716 3.27072V10.7486L4.4471 4.96824L3.97057 5.08737C3.26275 5.26432 2.56066 5.4902 1.93245 5.86122C1.33411 6.2146 1.25651 6.44739 0.978858 7.28034L0.97884 7.28039Z" fill="white"/>
<path d="M10.6129 6.12431V2.27072M10.6129 2.27072V2.27072C10.6129 1.84506 10.2678 1.5 9.84219 1.5H8.53003C7.97775 1.5 7.53003 1.94772 7.53003 2.5V6.12431V2.27072H5.9886H5.44716C4.89487 2.27072 4.44716 2.71843 4.44716 3.27072V10.7486L4.4471 4.96824L3.97057 5.08737C3.26275 5.26432 2.56066 5.4902 1.93245 5.86122C1.3341 6.21461 1.25651 6.4474 0.97884 7.28039C0.721927 8.05111 0.978782 14.9876 4.83246 18.4558C7.65843 18.7127 15.2371 18.4558 15.2371 18.4558C15.2371 18.4558 17.5492 15.3729 17.5494 10.3633V4.91828C17.5494 4.48785 17.274 4.10571 16.8656 3.96959L14.0811 3.04144M10.6129 2.27072H13.3104C13.7361 2.27072 14.0811 2.61578 14.0811 3.04144V3.04144M14.0811 6.50967V3.04144" stroke="#474747" stroke-width="1.5" stroke-linecap="round" stroke-linejoin="round"/>
<path d="M6.36157 11.7949L7.25678 16.2709" stroke="#474747"/>
<path d="M9.04712 11.7949V16.2932" stroke="#474747"/>
<path d="M12.628 11.7949L11.7328 16.2709" stroke="#474747"/>
</svg>
