<svg width="21" height="25" viewBox="0 0 21 25" fill="none" xmlns="http://www.w3.org/2000/svg">
<path d="M1.0762 10.2445C3.38721 16.0223 0.691142 16.4074 7.31068 23.7259C10.1354 23.9827 17.7106 23.7259 17.7106 23.7259C17.7106 23.7259 20.0217 20.6444 20.0219 15.637V6.72817C20.0219 6.29774 19.7464 5.9156 19.3381 5.77949L16.5552 4.85186V3.54074C16.5552 2.98846 16.1075 2.54074 15.5552 2.54074H13.0885V2C13.0885 1.44772 12.6408 1 12.0885 1H9.93562L9.94355 2.15556H8.39487L7.61354 2.36038C7.20163 2.46836 6.90328 2.82535 6.87014 3.24989L6.0838 13.3259L4.88367 10.9258C4.40287 9.96429 3.66651 9.15173 2.59168 9.1305C1.65648 9.11202 0.723728 9.36323 1.0762 10.2445Z" fill="white"/>
<path d="M10.007 11.3999L9.93562 1M9.93562 1H12.0885C12.6408 1 13.0885 1.44772 13.0885 2V2.54074M9.93562 1L9.94355 2.15556H8.39487L7.61354 2.36038C7.20163 2.46836 6.90328 2.82535 6.87014 3.24989L6.0838 13.3259L4.88367 10.9258C4.40287 9.96429 3.66651 9.15173 2.59168 9.1305C1.65648 9.11202 0.723728 9.36323 1.0762 10.2445C3.38721 16.0223 0.691142 16.4074 7.31068 23.7259C10.1354 23.9827 17.7106 23.7259 17.7106 23.7259C17.7106 23.7259 20.0217 20.6444 20.0219 15.637V6.72817C20.0219 6.29774 19.7464 5.9156 19.3381 5.77949L16.5552 4.85186M13.0885 11.3999V2.54074M13.0885 2.54074H15.5552C16.1075 2.54074 16.5552 2.98846 16.5552 3.54074V4.85186M16.5552 11.7851V4.85186" stroke="#474747" stroke-width="1.5" stroke-linecap="square" stroke-linejoin="round"/>
<path d="M9.27441 16.6294L10.1938 21.2263" stroke="#474747"/>
<path d="M12.0325 16.6294V21.2492" stroke="#474747"/>
<path d="M15.71 16.6294L14.7906 21.2263" stroke="#474747"/>
</svg>
