<svg width="20" height="18" viewBox="0 0 20 18" fill="none" xmlns="http://www.w3.org/2000/svg">
<g clip-path="url(#clip0)">
<path d="M13.9687 11.9748L15.0799 10.8636C15.2535 10.69 15.5556 10.8116 15.5556 11.0616V16.1102C15.5556 17.0303 14.809 17.7768 13.8889 17.7768H1.66667C0.746528 17.7768 0 17.0303 0 16.1102V3.88795C0 2.96781 0.746528 2.22129 1.66667 2.22129H11.1632C11.4097 2.22129 11.5347 2.5199 11.3611 2.69698L10.25 3.80809C10.1979 3.86018 10.1285 3.88795 10.0521 3.88795H1.66667V16.1102H13.8889V12.1692C13.8889 12.0963 13.9167 12.0268 13.9687 11.9748ZM19.4062 4.96781L10.2882 14.0859L7.1493 14.4331C6.23958 14.5338 5.46528 13.7664 5.56597 12.8498L5.91319 9.71087L15.0312 0.592814C15.8264 -0.202325 17.1111 -0.202325 17.9028 0.592814L19.4028 2.09281C20.1979 2.88795 20.1979 4.17615 19.4062 4.96781ZM15.9757 6.04073L13.9583 4.02337L7.50694 10.4782L7.25347 12.7456L9.52083 12.4921L15.9757 6.04073ZM18.2257 3.27337L16.7257 1.77337C16.5833 1.63101 16.3507 1.63101 16.2118 1.77337L15.1389 2.84629L17.1562 4.86365L18.2292 3.79073C18.3681 3.6449 18.3681 3.41573 18.2257 3.27337Z" fill="black"/>
</g>
<defs>
<clipPath id="clip0">
<rect width="20" height="17.7778" fill="white"/>
</clipPath>
</defs>
</svg>
