<svg width="35" height="35" viewBox="0 0 35 35" fill="none" xmlns="http://www.w3.org/2000/svg">
<rect width="35" height="35" rx="17.5" fill="#76FFCE"/>
<path d="M14.4308 23.6292L13.4588 24.5952C13.0516 24.996 12.5031 25.2206 11.9318 25.2206C11.3604 25.2206 10.812 24.996 10.4048 24.5952C10.2062 24.3986 10.0486 24.1646 9.94109 23.9067C9.83353 23.6488 9.77816 23.3722 9.77816 23.0928C9.77816 22.8134 9.83353 22.5367 9.94109 22.2789C10.0486 22.021 10.2062 21.787 10.4048 21.5904L13.9808 18.0444C14.7212 17.3088 16.1156 16.2264 17.132 17.2344C17.2414 17.351 17.3731 17.4444 17.5194 17.509C17.6656 17.5736 17.8234 17.6081 17.9833 17.6103C18.1432 17.6126 18.3019 17.5827 18.4499 17.5223C18.598 17.4619 18.7324 17.3723 18.845 17.2588C18.9577 17.1453 19.0463 17.0103 19.1057 16.8619C19.165 16.7134 19.1938 16.5545 19.1904 16.3946C19.187 16.2347 19.1514 16.0772 19.0858 15.9314C19.0201 15.7856 18.9258 15.6545 18.8084 15.546C17.0828 13.8324 14.5292 14.1492 12.3056 16.356L8.72958 19.9032C8.30705 20.3197 7.97183 20.8164 7.74353 21.3641C7.51523 21.9117 7.39844 22.4994 7.39998 23.0928C7.3985 23.6861 7.51533 24.2738 7.74362 24.8214C7.97192 25.3691 8.3071 25.8658 8.72958 26.2824C9.58121 27.1271 10.7329 27.6 11.9324 27.5976C13.0928 27.5976 14.2532 27.1596 15.1352 26.2824L16.1084 25.3164C16.2194 25.2066 16.3076 25.076 16.368 24.9321C16.4284 24.7882 16.4597 24.6337 16.4603 24.4776C16.4609 24.3215 16.4306 24.1669 16.3712 24.0225C16.3119 23.8781 16.2246 23.7469 16.1144 23.6364C15.8916 23.413 15.5895 23.2869 15.2741 23.2855C14.9586 23.2842 14.6554 23.4077 14.4308 23.6292ZM25.2692 9.84837C23.4128 8.00757 20.8184 7.90797 19.1024 9.61197L17.8916 10.8144C17.6678 11.0365 17.5415 11.3384 17.5404 11.6537C17.5393 11.969 17.6634 12.2718 17.8856 12.4956C18.1077 12.7193 18.4096 12.8456 18.7249 12.8468C19.0402 12.8479 19.343 12.7237 19.5668 12.5016L20.7788 11.3004C21.6668 10.4172 22.832 10.7832 23.594 11.5368C23.9972 11.9388 24.2204 12.4716 24.2204 13.0392C24.2204 13.6068 23.9972 14.1396 23.594 14.5404L19.778 18.3252C18.0332 20.0544 17.2148 19.2444 16.8656 18.8976C16.7548 18.7876 16.6234 18.7005 16.479 18.6413C16.3345 18.582 16.1798 18.5518 16.0237 18.5524C15.8676 18.5529 15.7131 18.5842 15.5691 18.6445C15.4251 18.7048 15.2944 18.7928 15.1844 18.9036C15.0744 19.0144 14.9873 19.1457 14.9281 19.2902C14.8688 19.4346 14.8386 19.5893 14.8392 19.7454C14.8397 19.9015 14.871 20.056 14.9313 20.2C14.9916 20.344 15.0796 20.4748 15.1904 20.5848C15.992 21.3792 16.9064 21.7728 17.864 21.7728C19.0364 21.7728 20.276 21.1824 21.4556 20.0124L25.2716 16.2288C25.6932 15.8116 26.0277 15.3148 26.2558 14.7672C26.4838 14.2197 26.6008 13.6323 26.6 13.0392C26.6011 12.4456 26.4839 11.8578 26.2554 11.3099C26.027 10.7621 25.6917 10.2653 25.2692 9.84837Z" fill="black"/>
</svg>
