<svg width="24" height="24" viewBox="0 0 24 24" fill="none" xmlns="http://www.w3.org/2000/svg">
<path d="M7.33999 6.41001L0.859985 12.9L7.34999 19.38L13.84 12.9L7.33999 6.41001V6.41001ZM3.68999 12.9L7.34999 9.24001L11 12.9L7.33999 16.56L3.68999 12.9V12.9ZM19.36 6.64001C18.5267 5.80182 17.5357 5.13697 16.4441 4.68386C15.3524 4.23074 14.1819 3.99831 13 4.00001V0.76001L8.75999 5.00001L13 9.24001V6.00001C14.79 6.00001 16.58 6.68001 17.95 8.05001C19.2612 9.36369 19.9976 11.1439 19.9976 13C19.9976 14.8561 19.2612 16.6363 17.95 17.95C16.951 18.9521 15.6707 19.6265 14.2793 19.8837C12.8879 20.1409 11.4512 19.9687 10.16 19.39L8.66999 20.88C9.99999 21.62 11.5 22 13 22C15.3 22 17.61 21.12 19.36 19.36C20.1969 18.5258 20.861 17.5345 21.314 16.4432C21.7671 15.3518 22.0004 14.1817 22.0004 13C22.0004 11.8183 21.7671 10.6482 21.314 9.55686C20.861 8.46548 20.1969 7.47425 19.36 6.64001V6.64001Z" fill="black"/>
</svg>
